<svg width="300" height="300" viewBox="0 0 300 300" fill="none" xmlns="http://www.w3.org/2000/svg">
<rect x="2.5" y="2.5" width="295" height="295" rx="147.5" fill="#A6CE96"/>
<rect x="2.5" y="2.5" width="295" height="295" rx="147.5" stroke="#10253A" stroke-width="5"/>
<mask id="path-2-outside-1_487_360" maskUnits="userSpaceOnUse" x="103" y="220" width="94" height="29" fill="black">
<rect fill="white" x="103" y="220" width="94" height="29"/>
<path d="M190 223C192.209 223 194.049 224.833 193.353 226.93C191.813 231.571 187.57 235.888 181.113 239.263C172.861 243.577 161.67 246 150 246C138.33 246 127.139 243.577 118.887 239.263C112.43 235.888 108.187 231.571 106.647 226.93C105.951 224.833 107.791 223 110 223L116.16 223C118.369 223 120.117 224.87 121.086 226.856C122.4 229.548 125.078 232.032 128.9 234.03C134.496 236.955 142.086 238.598 150 238.598C157.914 238.598 165.504 236.955 171.1 234.03C174.922 232.032 177.6 229.548 178.914 226.856C179.883 224.87 181.631 223 183.84 223H190Z"/>
</mask>
<path d="M190 223C192.209 223 194.049 224.833 193.353 226.93C191.813 231.571 187.57 235.888 181.113 239.263C172.861 243.577 161.67 246 150 246C138.33 246 127.139 243.577 118.887 239.263C112.43 235.888 108.187 231.571 106.647 226.93C105.951 224.833 107.791 223 110 223L116.16 223C118.369 223 120.117 224.87 121.086 226.856C122.4 229.548 125.078 232.032 128.9 234.03C134.496 236.955 142.086 238.598 150 238.598C157.914 238.598 165.504 236.955 171.1 234.03C174.922 232.032 177.6 229.548 178.914 226.856C179.883 224.87 181.631 223 183.84 223H190Z" fill="#E6DD92"/>
<path d="M190 223C192.209 223 194.049 224.833 193.353 226.93C191.813 231.571 187.57 235.888 181.113 239.263C172.861 243.577 161.67 246 150 246C138.33 246 127.139 243.577 118.887 239.263C112.43 235.888 108.187 231.571 106.647 226.93C105.951 224.833 107.791 223 110 223L116.16 223C118.369 223 120.117 224.87 121.086 226.856C122.4 229.548 125.078 232.032 128.9 234.03C134.496 236.955 142.086 238.598 150 238.598C157.914 238.598 165.504 236.955 171.1 234.03C174.922 232.032 177.6 229.548 178.914 226.856C179.883 224.87 181.631 223 183.84 223H190Z" stroke="#10253A" stroke-width="6" mask="url(#path-2-outside-1_487_360)"/>
</svg>
